<svg width="25" height="27" viewBox="0 0 25 27" fill="none" xmlns="http://www.w3.org/2000/svg">
<path id="Vector" d="M16.5079 23.8001C16.5082 24.4972 16.2447 25.1686 15.7702 25.6797C15.2958 26.1908 14.6456 26.5039 13.9498 26.5562L13.7424 26.5631H10.9769C10.2792 26.5633 9.60714 26.3001 9.09554 25.8261C8.58395 25.3521 8.27057 24.7025 8.21824 24.0074L8.21133 23.8001H16.5079ZM12.3596 0.314812C14.8693 0.31477 17.2809 1.28862 19.0857 3.03092C20.8905 4.77323 21.9474 7.14778 22.0335 9.65368L22.039 9.98524V15.1852L24.5584 20.2193C24.6684 20.439 24.7234 20.682 24.7188 20.9275C24.7142 21.1731 24.6501 21.4139 24.5319 21.6292C24.4138 21.8446 24.2452 22.0282 24.0406 22.1642C23.8359 22.3003 23.6013 22.3847 23.3568 22.4104L23.1978 22.4186H1.5215C1.27559 22.4187 1.03333 22.3592 0.815482 22.2453C0.597633 22.1313 0.410688 21.9663 0.270666 21.7643C0.130644 21.5623 0.0417216 21.3295 0.0115176 21.0857C-0.0186864 20.8418 0.0107291 20.5943 0.0972434 20.3644L0.160851 20.2193L2.68026 15.1852V9.98524C2.68026 7.42048 3.70004 4.96077 5.51528 3.14721C7.33052 1.33366 9.79251 0.314812 12.3596 0.314812Z" fill="black"/>
</svg>
