<svg width="24" height="24" viewBox="0 0 24 24" fill="none" xmlns="http://www.w3.org/2000/svg">
<path opacity="0.983" fill-rule="evenodd" clip-rule="evenodd" d="M10.1953 3.72653C10.3835 3.71877 10.571 3.72659 10.7578 3.74997C11.4836 4.07386 12.2024 4.4098 12.9141 4.75778C12.5033 6.69339 12.9877 8.36528 14.3672 9.77341C13.0774 10.3948 11.7805 11.0042 10.4766 11.6015C7.58583 10.281 4.7108 8.9373 1.85156 7.57028C4.63665 6.28694 7.41788 5.0057 10.1953 3.72653Z" fill="black"/>
<path opacity="0.991" fill-rule="evenodd" clip-rule="evenodd" d="M1.47656 8.22656C4.34052 9.52566 7.19991 10.8382 10.0547 12.1641C10.1016 15.6014 10.1172 19.0389 10.1016 22.4766C7.30495 21.2268 4.52371 19.9377 1.75781 18.6094C1.63566 18.5185 1.54973 18.4013 1.5 18.2578C1.47656 14.9141 1.46875 11.5703 1.47656 8.22656Z" fill="black"/>
<path opacity="0.981" fill-rule="evenodd" clip-rule="evenodd" d="M17.3203 1.47631C19.6406 1.30748 21.2734 2.27623 22.2187 4.38256C22.8999 6.69894 22.2514 8.53489 20.2734 9.89037C19.227 10.471 18.1176 10.6351 16.9453 10.3826C15.0232 9.84326 13.8747 8.59325 13.5 6.63256C13.3083 4.3111 14.2693 2.67829 16.3828 1.73412C16.6972 1.63222 17.0097 1.54628 17.3203 1.47631ZM19.3359 3.77319C19.7238 3.73599 19.8723 3.90786 19.7812 4.28881C19.2785 5.55978 18.7629 6.82541 18.2343 8.08569C18.1135 8.17226 17.9807 8.1957 17.8359 8.156C17.2826 7.64961 16.7435 7.12616 16.2187 6.58569C16.0703 6.10911 16.2343 5.94505 16.7109 6.0935C17.0788 6.4692 17.4538 6.83637 17.8359 7.19506C18.2725 6.19044 18.6865 5.1748 19.0781 4.14819C19.131 3.9938 19.2169 3.8688 19.3359 3.77319Z" fill="black"/>
<path opacity="0.99" fill-rule="evenodd" clip-rule="evenodd" d="M14.9297 10.2891C15.3671 10.5233 15.8203 10.7342 16.2891 10.9219C17.3484 11.2689 18.4108 11.2924 19.4766 10.9922C19.4844 13.4141 19.4766 15.836 19.4531 18.2578C19.2999 18.5579 19.0577 18.7531 18.7266 18.8438C16.0941 20.0777 13.4535 21.2887 10.8047 22.4766C10.7969 19.0546 10.8047 15.6328 10.8281 12.2109C12.196 11.562 13.5632 10.9214 14.9297 10.2891Z" fill="black"/>
</svg>
