<svg width="24" height="24" viewBox="0 0 24 24" fill="none" xmlns="http://www.w3.org/2000/svg">
<g id="Frame 15" clip-path="url(#clip0_260_238)">
<path id="Vector" d="M15.6016 12.2708C16.2583 11.7024 16.785 10.9994 17.146 10.2094C17.507 9.41949 17.6938 8.56113 17.6938 7.69261C17.6938 6.06059 17.0455 4.49541 15.8915 3.34139C14.7375 2.18738 13.1723 1.53906 11.5403 1.53906C9.90823 1.53906 8.34305 2.18738 7.18904 3.34139C6.03503 4.49541 5.38671 6.06059 5.38671 7.69261C5.3867 8.56113 5.57353 9.41949 5.93453 10.2094C6.29552 10.9994 6.82224 11.7024 7.47891 12.2708C5.75609 13.051 4.29441 14.3108 3.26863 15.8996C2.24286 17.4885 1.69639 19.3392 1.69458 21.2304C1.69458 21.5568 1.82424 21.8699 2.05505 22.1007C2.28585 22.3315 2.59888 22.4611 2.92529 22.4611C3.25169 22.4611 3.56473 22.3315 3.79553 22.1007C4.02634 21.8699 4.156 21.5568 4.156 21.2304C4.156 19.272 4.93398 17.3938 6.3188 16.009C7.70361 14.6241 9.58183 13.8462 11.5403 13.8462C13.4987 13.8462 15.3769 14.6241 16.7617 16.009C18.1465 17.3938 18.9245 19.272 18.9245 21.2304C18.9245 21.5568 19.0542 21.8699 19.285 22.1007C19.5158 22.3315 19.8288 22.4611 20.1552 22.4611C20.4816 22.4611 20.7947 22.3315 21.0255 22.1007C21.2563 21.8699 21.3859 21.5568 21.3859 21.2304C21.3841 19.3392 20.8377 17.4885 19.8119 15.8996C18.7861 14.3108 17.3244 13.051 15.6016 12.2708ZM11.5403 11.3847C10.81 11.3847 10.0962 11.1682 9.48902 10.7625C8.88185 10.3568 8.40862 9.78017 8.12917 9.10553C7.84972 8.43088 7.77661 7.68851 7.91907 6.97231C8.06153 6.25611 8.41317 5.59823 8.92953 5.08188C9.44588 4.56553 10.1038 4.21389 10.82 4.07142C11.5362 3.92896 12.2785 4.00208 12.9532 4.28153C13.6278 4.56098 14.2045 5.03421 14.6101 5.64137C15.0158 6.24854 15.2324 6.96238 15.2324 7.69261C15.2324 8.67182 14.8434 9.61093 14.151 10.3033C13.4586 10.9957 12.5195 11.3847 11.5403 11.3847Z" fill="black"/>
</g>
<defs>
<clipPath id="clip0_260_238">
<rect width="24" height="24" fill="white"/>
</clipPath>
</defs>
</svg>
