<svg width="24" height="24" viewBox="0 0 24 24" fill="none" xmlns="http://www.w3.org/2000/svg">
<g id="ant-design:logout-outlined">
<path id="Vector" d="M20.3438 17.1527H18.6961C18.5836 17.1527 18.4782 17.2019 18.4078 17.2886C18.2438 17.4878 18.068 17.6799 17.8828 17.8627C17.1256 18.6206 16.2286 19.2245 15.2414 19.6412C14.2188 20.0731 13.1196 20.2946 12.0094 20.2926C10.8868 20.2926 9.79925 20.0724 8.77738 19.6412C7.79026 19.2245 6.89325 18.6206 6.13597 17.8627C5.37733 17.1074 4.77242 16.2121 4.35472 15.2266C3.92113 14.2049 3.70316 13.12 3.70316 11.9976C3.70316 10.8752 3.92347 9.79028 4.35472 8.76863C4.77191 7.78214 5.37191 6.89405 6.13597 6.1325C6.90003 5.37096 7.78831 4.77109 8.77738 4.354C9.79925 3.92284 10.8868 3.70258 12.0094 3.70258C13.1321 3.70258 14.2196 3.9205 15.2414 4.354C16.2305 4.77109 17.1188 5.37096 17.8828 6.1325C18.068 6.31762 18.2414 6.50976 18.4078 6.70659C18.4782 6.79329 18.586 6.8425 18.6961 6.8425H20.3438C20.4914 6.8425 20.5828 6.67848 20.5008 6.55428C18.7032 3.76116 15.5578 1.91235 11.9836 1.92173C6.368 1.93579 1.86566 6.49336 1.92191 12.1007C1.97816 17.619 6.47347 22.0735 12.0094 22.0735C15.5743 22.0735 18.7055 20.227 20.5008 17.4409C20.5805 17.3167 20.4914 17.1527 20.3438 17.1527ZM22.4274 11.85L19.1016 9.22556C18.9774 9.12715 18.7969 9.21619 18.7969 9.37319V11.154H11.4375C11.3344 11.154 11.25 11.2384 11.25 11.3415V12.6537C11.25 12.7568 11.3344 12.8412 11.4375 12.8412H18.7969V14.622C18.7969 14.779 18.9797 14.868 19.1016 14.7696L22.4274 12.1452C22.4498 12.1277 22.4679 12.1053 22.4804 12.0797C22.4928 12.0541 22.4993 12.026 22.4993 11.9976C22.4993 11.9691 22.4928 11.9411 22.4804 11.9155C22.4679 11.8899 22.4498 11.8675 22.4274 11.85Z" fill="black"/>
</g>
</svg>
