<svg width="16" height="16" viewBox="0 0 16 16" fill="none" xmlns="http://www.w3.org/2000/svg">
<g id="tea-time 1">
<g id="Group 1000010122">
<g id="Group">
<path id="Vector" opacity="0.955" fill-rule="evenodd" clip-rule="evenodd" d="M7.84744 1C8.93642 1.01853 9.58626 1.56084 9.79695 2.62693C9.8567 3.42858 9.54346 4.03167 8.85726 4.43619C7.87142 4.85249 7.06261 4.63277 6.43089 3.777C6.04789 3.06169 6.08528 2.36977 6.54309 1.70126C6.88738 1.29311 7.32217 1.05936 7.84744 1ZM7.87549 1.30856C7.9503 1.30856 8.02508 1.30856 8.09989 1.30856C8.09989 1.44881 8.09989 1.58906 8.09989 1.72931C8.02508 1.72931 7.9503 1.72931 7.87549 1.72931C7.87549 1.58906 7.87549 1.44881 7.87549 1.30856ZM6.97787 1.70126C7.1039 1.75204 7.20674 1.83619 7.28643 1.95372C7.24954 2.00465 7.20747 2.0514 7.1602 2.09397C7.06626 2.00471 6.97743 1.91121 6.89372 1.81346C6.92245 1.77555 6.9505 1.73815 6.97787 1.70126ZM8.94141 1.70126C9.00834 1.72576 9.06444 1.76784 9.10971 1.82749C9.02046 1.92144 8.92696 2.01027 8.82921 2.09397C8.77827 2.05709 8.73151 2.01501 8.68896 1.96774C8.77883 1.88258 8.86298 1.79376 8.94141 1.70126ZM7.87549 2.12202C7.9503 2.12202 8.02508 2.12202 8.09989 2.12202C8.09524 2.29058 8.09992 2.45888 8.11392 2.62693C8.13729 2.6503 8.16068 2.67368 8.18405 2.69706C8.33336 2.71106 8.48295 2.71574 8.63285 2.71108C8.63285 2.78588 8.63285 2.86068 8.63285 2.93549C8.48295 2.93083 8.33336 2.9355 8.18405 2.94951C8.0618 3.07355 7.93557 3.07823 7.80536 2.96354C7.74438 2.83835 7.76306 2.72615 7.86147 2.62693C7.87546 2.45888 7.88015 2.29058 7.87549 2.12202ZM6.47296 2.71108C6.61322 2.71108 6.75347 2.71108 6.89372 2.71108C6.89372 2.78588 6.89372 2.86068 6.89372 2.93549C6.75347 2.93549 6.61322 2.93549 6.47296 2.93549C6.47296 2.86068 6.47296 2.78588 6.47296 2.71108ZM9.08166 2.71108C9.22192 2.71108 9.36217 2.71108 9.50242 2.71108C9.50242 2.78588 9.50242 2.86068 9.50242 2.93549C9.36217 2.93549 9.22192 2.93549 9.08166 2.93549C9.08166 2.86068 9.08166 2.78588 9.08166 2.71108ZM7.11813 3.52455C7.18506 3.54904 7.24116 3.59112 7.28643 3.65077C7.19591 3.75282 7.10242 3.851 7.00592 3.9453C6.94982 3.90791 6.90306 3.86115 6.86567 3.80505C6.95044 3.711 7.03459 3.61749 7.11813 3.52455ZM8.82921 3.52455C8.9213 3.62612 9.01479 3.72895 9.10971 3.8331C9.07232 3.8892 9.02556 3.93596 8.96946 3.97335C8.8717 3.88965 8.77821 3.80082 8.68896 3.70687C8.731 3.64157 8.77776 3.5808 8.82921 3.52455ZM7.87549 3.91725C7.9503 3.91725 8.02508 3.91725 8.09989 3.91725C8.09989 4.05751 8.09989 4.19776 8.09989 4.33801C8.02508 4.33801 7.9503 4.33801 7.87549 4.33801C7.87549 4.19776 7.87549 4.05751 7.87549 3.91725Z" fill="black"/>
</g>
<g id="Group_2">
<path id="Vector_2" opacity="0.972" fill-rule="evenodd" clip-rule="evenodd" d="M12.8126 3.46858C13.4143 3.42166 13.849 3.66477 14.117 4.1979C14.3234 4.88794 14.113 5.40688 13.4858 5.7547C12.8634 5.95549 12.3632 5.79187 11.9851 5.26382C11.6903 4.62438 11.8166 4.08673 12.3638 3.65091C12.507 3.56502 12.6566 3.50425 12.8126 3.46858Z" fill="black"/>
</g>
<g id="Group_3">
<path id="Vector_3" opacity="0.972" fill-rule="evenodd" clip-rule="evenodd" d="M2.82634 3.52441C3.80707 3.57816 4.23252 4.09241 4.10264 5.06719C3.83226 5.73311 3.34138 5.99959 2.62999 5.86663C1.89426 5.55923 1.63713 5.02161 1.8586 4.25373C2.05367 3.83648 2.37625 3.59337 2.82634 3.52441Z" fill="black"/>
</g>
<g id="Group_4">
<path id="Vector_4" opacity="0.921" fill-rule="evenodd" clip-rule="evenodd" d="M8.0439 5.74101C8.38999 5.73633 8.73594 5.74101 9.08177 5.75504C9.12923 5.79434 9.14794 5.84576 9.13787 5.90932C9.52438 5.97383 9.66932 6.19824 9.57265 6.58253C9.48718 6.7473 9.35159 6.84082 9.16592 6.86304C9.17055 6.96632 9.16589 7.06915 9.1519 7.17159C9.13787 7.18562 9.12385 7.19964 9.10982 7.21367C8.7545 7.23238 8.39922 7.23238 8.0439 7.21367C8.02988 7.19964 8.01585 7.18562 8.00183 7.17159C7.98312 6.71344 7.98312 6.25527 8.00183 5.79712C8.02194 5.78186 8.03596 5.76315 8.0439 5.74101ZM9.16592 6.07762C9.41007 6.15454 9.48957 6.3135 9.40435 6.55448C9.34278 6.62264 9.26797 6.6694 9.17995 6.69473C9.16592 6.48923 9.16127 6.28354 9.16592 6.07762Z" fill="black"/>
</g>
<g id="Group_5">
<path id="Vector_5" opacity="0.957" fill-rule="evenodd" clip-rule="evenodd" d="M2.77043 5.96487C3.41676 5.93017 3.8796 6.2013 4.15893 6.77833C4.24653 6.97757 4.26989 7.18327 4.22905 7.39544C3.95789 7.1944 3.68675 6.99339 3.41559 6.79236C3.03723 6.64419 2.7427 6.74237 2.532 7.08689C2.44862 7.34139 2.48602 7.57513 2.6442 7.78815C3.175 8.1868 3.7033 8.58885 4.22905 8.99432C4.25637 9.05724 4.26574 9.12268 4.2571 9.19068C4.21971 9.19068 4.18229 9.19068 4.1449 9.19068C4.1449 9.55533 4.1449 9.91999 4.1449 10.2846C4.75273 10.28 5.3605 10.2846 5.96818 10.2987C6.01026 10.3407 6.05234 10.3828 6.09441 10.4249C6.50361 11.4187 6.89632 12.4192 7.27253 13.4263C7.27607 14.0169 6.98154 14.274 6.38894 14.1977C6.2656 14.1523 6.15806 14.0822 6.06636 13.9873C5.72333 13.1638 5.39138 12.3363 5.07057 11.5048C4.28552 11.5204 3.50012 11.5204 2.71432 11.5048C2.1183 11.367 1.75832 10.9976 1.63438 10.3968C1.61568 10.6867 1.61568 10.9766 1.63438 11.2664C1.67457 11.4094 1.7634 11.5076 1.90086 11.5609C2.92934 11.575 3.95786 11.5797 4.98642 11.575C4.98642 11.7713 4.98642 11.9677 4.98642 12.164C4.83682 12.164 4.6872 12.164 4.53761 12.164C4.71217 13.0976 4.89918 14.028 5.09862 14.9551C5.05654 14.9597 5.01447 14.9644 4.97239 14.9691C4.91682 14.9655 4.87009 14.9468 4.83214 14.913C4.64075 13.9981 4.45842 13.0818 4.28515 12.164C4.05996 12.1547 3.83556 12.1641 3.61194 12.1921C3.80614 13.1163 3.99315 14.042 4.17295 14.9691C4.0888 14.9691 4.00465 14.9691 3.9205 14.9691C3.73786 14.0419 3.54619 13.1163 3.34546 12.1921C3.25027 12.1653 3.15209 12.1559 3.05093 12.164C2.87766 13.0818 2.69533 13.9981 2.50395 14.913C2.466 14.9468 2.41925 14.9655 2.36369 14.9691C2.32162 14.9644 2.27954 14.9597 2.23747 14.9551C2.43691 14.028 2.62392 13.0976 2.79848 12.164C2.53667 12.164 2.27487 12.164 2.01306 12.164C1.82247 13.0983 1.63547 14.0333 1.45205 14.9691C1.36588 14.978 1.28173 14.9686 1.1996 14.941C1.40364 14.0189 1.60934 13.0979 1.81671 12.1781C1.62827 12.1717 1.44126 12.153 1.2557 12.122C1.14376 12.0661 1.07364 11.9773 1.04532 11.8555C1.03129 10.827 1.02662 9.79847 1.03129 8.76992C1.22765 8.76992 1.424 8.76992 1.62035 8.76992C1.61568 8.20882 1.62035 7.64781 1.63438 7.08689C1.76887 6.4615 2.14755 6.08748 2.77043 5.96487Z" fill="black"/>
</g>
<g id="Group_6">
<path id="Vector_6" opacity="0.972" fill-rule="evenodd" clip-rule="evenodd" d="M12.7844 5.99308C13.5241 5.93959 14.0243 6.25749 14.2851 6.9468C14.317 7.54876 14.331 8.15185 14.3271 8.75606C14.331 9.36027 14.317 9.96335 14.2851 10.5653C14.0826 11.1696 13.6618 11.4875 13.0228 11.519C12.3077 11.4887 11.5924 11.484 10.8769 11.505C10.5678 12.3056 10.2546 13.105 9.93724 13.9033C9.74622 14.1666 9.48908 14.2648 9.16585 14.1979C8.81449 14.0611 8.66021 13.8039 8.70302 13.4265C9.07528 12.4406 9.45864 11.4588 9.85309 10.4812C9.90563 10.4192 9.96641 10.3678 10.0354 10.3269C10.6338 10.3129 11.2322 10.3082 11.8307 10.3129C11.8307 9.95755 11.8307 9.60226 11.8307 9.24694C11.7805 9.25494 11.7337 9.2456 11.6904 9.21889C12.231 9.02582 12.6938 8.71727 13.0789 8.29323C13.3491 7.9507 13.5221 7.56265 13.5978 7.12913C13.5486 6.75266 13.3382 6.53292 12.9667 6.46994C12.5748 6.52526 12.3504 6.74966 12.2935 7.14315C12.1554 7.41682 11.9544 7.63188 11.6904 7.78832C11.6685 7.75384 11.6545 7.71645 11.6483 7.67611C10.7324 7.91317 9.96103 7.67474 9.33415 6.96083C9.68392 6.76688 9.78678 6.48638 9.64271 6.11931C9.73676 6.11325 9.82091 6.1413 9.89516 6.20346C10.4363 6.91387 11.0908 7.04478 11.8587 6.59617C12.0959 6.28147 12.4045 6.08046 12.7844 5.99308Z" fill="black"/>
</g>
<g id="Group_7">
<path id="Vector_7" opacity="0.956" fill-rule="evenodd" clip-rule="evenodd" d="M12.8124 6.66602C13.3063 6.66949 13.4886 6.91261 13.3594 7.39533C13.1192 8.09373 12.6564 8.58461 11.9709 8.86798C11.3045 9.13595 10.6126 9.24815 9.89515 9.20459C9.54157 9.12871 9.42469 8.91833 9.54452 8.57345C9.6041 8.46649 9.69294 8.39637 9.811 8.36307C10.5845 8.38007 11.3138 8.21177 11.9989 7.85816C12.3448 7.62941 12.5271 7.30683 12.5459 6.89042C12.6065 6.77808 12.6954 6.70329 12.8124 6.66602Z" fill="black"/>
</g>
<g id="Group_8">
<path id="Vector_8" opacity="0.953" fill-rule="evenodd" clip-rule="evenodd" d="M3.0227 6.9186C3.12854 6.91195 3.23139 6.92597 3.33125 6.96067C3.80517 7.33186 4.28671 7.69184 4.77586 8.04062C5.10455 7.88797 5.42713 7.72432 5.7436 7.54973C5.99429 7.45329 6.1953 7.51408 6.34668 7.73206C6.43243 7.97958 6.37165 8.18059 6.16436 8.33515C5.72839 8.56715 5.28896 8.79156 4.84598 9.00836C4.69339 9.04129 4.55313 9.01324 4.42522 8.92421C3.88758 8.51748 3.34995 8.11074 2.81232 7.70401C2.59482 7.36115 2.66494 7.09935 3.0227 6.9186Z" fill="black"/>
</g>
<g id="Group_9">
<path id="Vector_9" opacity="0.935" fill-rule="evenodd" clip-rule="evenodd" d="M6.5852 7.19852C6.94192 7.18971 7.29721 7.19905 7.65112 7.22657C7.68851 7.70343 7.68851 8.18029 7.65112 8.65714C7.30646 8.68929 6.96049 8.69398 6.61325 8.67117C6.58756 8.66068 6.56416 8.64665 6.54312 8.62909C6.54489 8.50337 6.52152 8.38651 6.473 8.27846C6.5314 8.17386 6.56879 8.06166 6.5852 7.94186C6.54924 7.80856 6.52587 7.67299 6.51507 7.53512C6.48565 7.56365 6.45291 7.56834 6.4169 7.54915C6.305 7.42043 6.34242 7.35964 6.5291 7.36682C6.52217 7.30068 6.54085 7.24458 6.5852 7.19852Z" fill="black"/>
</g>
<g id="Group_10">
<path id="Vector_10" opacity="0.912" fill-rule="evenodd" clip-rule="evenodd" d="M14.3552 8.76953C14.5703 8.76953 14.7853 8.76953 15.0004 8.76953C15.0135 9.81789 14.9995 10.8651 14.9583 11.9112C14.9069 12 14.8368 12.0702 14.7479 12.1216C14.5724 12.1585 14.3947 12.1725 14.215 12.1636C14.3948 13.0907 14.5818 14.0164 14.776 14.9406C14.6938 14.9682 14.6097 14.9776 14.5235 14.9687C14.3401 14.0329 14.1531 13.0979 13.9625 12.1636C13.7007 12.1636 13.4389 12.1636 13.1771 12.1636C13.3517 13.0972 13.5387 14.0276 13.7381 14.9547C13.696 14.9594 13.654 14.964 13.6119 14.9687C13.5563 14.9651 13.5096 14.9464 13.4716 14.9126C13.2802 13.9977 13.0979 13.0814 12.9246 12.1636C12.8235 12.1555 12.7253 12.1649 12.6301 12.1917C12.4294 13.1159 12.2377 14.0415 12.0551 14.9687C11.9709 14.9687 11.8868 14.9687 11.8026 14.9687C11.9824 14.0416 12.1694 13.1159 12.3636 12.1917C12.14 12.1637 11.9156 12.1544 11.6904 12.1636C11.5172 13.0814 11.3348 13.9977 11.1434 14.9126C11.1055 14.9464 11.0587 14.9651 11.0032 14.9687C10.9611 14.964 10.919 14.9594 10.877 14.9547C11.0764 14.0275 11.2634 13.0971 11.438 12.1636C11.2884 12.1636 11.1387 12.1636 10.9892 12.1636C10.9892 11.9766 10.9892 11.7896 10.9892 11.6026C12.0177 11.6073 13.0462 11.6026 14.0747 11.5886C14.2129 11.5346 14.3018 11.4364 14.3412 11.2941C14.3552 10.4526 14.3599 9.6111 14.3552 8.76953Z" fill="black"/>
</g>
<g id="Group_11">
<path id="Vector_11" opacity="0.959" fill-rule="evenodd" clip-rule="evenodd" d="M4.34106 9.41504C6.77212 9.41504 9.20315 9.41504 11.6342 9.41504C11.6342 9.64878 11.6342 9.88256 11.6342 10.1163C9.20315 10.1163 6.77212 10.1163 4.34106 10.1163C4.34106 9.88256 4.34106 9.64878 4.34106 9.41504Z" fill="black"/>
</g>
<g id="Group_12">
<path id="Vector_12" opacity="0.958" fill-rule="evenodd" clip-rule="evenodd" d="M7.76337 10.3125C7.91297 10.3125 8.06259 10.3125 8.21218 10.3125C8.21218 11.6215 8.21218 12.9305 8.21218 14.2396C8.60424 14.2712 8.98758 14.346 9.36225 14.464C9.36225 14.6323 9.36225 14.8006 9.36225 14.9689C8.44593 14.9689 7.52963 14.9689 6.6133 14.9689C6.60407 14.7995 6.61341 14.6312 6.64135 14.464C7.00326 14.3289 7.37726 14.254 7.76337 14.2396C7.76337 12.9305 7.76337 11.6215 7.76337 10.3125Z" fill="black"/>
</g>
</g>
</g>
</svg>
